# xmcd
#
# Track frame offsets: 
#        150
#        21450
#        45106
#        63856
#        91056
#        116919
#
# Disc length: 2201 seconds
#
# Revision: 0
# Processed by: cddbd v1.5.2PL0 Copyright (c) Steve Scherf et al.
# Submitted via: ExactAudioCopy v0.99pb4
#
DISCID=42089706
DTITLE=Quincy Jones - In The Jazz Mood CD1
DYEAR=2008
DGENRE=Jazz
TTITLE0=A Sleepin' Bee
TTITLE1=Boo's Blues
TTITLE2=Evening In Paris
TTITLE3=Sermonette
TTITLE4=Stockholm Sweetnin'
TTITLE5=Walkin'
EXTD=
EXTT0=
EXTT1=
EXTT2=
EXTT3=
EXTT4=
EXTT5=
PLAYORDER=
